# Blender v3.0.0 OBJ File: ''
# www.blender.org
mtllib daggerhighres-seamless.mtl
o dagger.001
v -0.043300 0.014700 0.000800
v 0.037500 -0.000000 0.018600
v -0.043300 -0.000000 0.014600
v 0.028050 -0.002400 0.018575
v -0.039600 -0.000000 0.010000
v 0.018600 -0.004800 0.018550
v 0.009150 -0.007200 0.018525
v -0.039600 0.009600 0.000800
v -0.000300 -0.009600 0.018500
v 0.009097 0.000003 0.010030
v -0.043300 -0.014700 0.000800
v -0.000300 0.009600 0.018500
v -0.043300 0.000000 -0.013100
v 0.009150 0.007200 0.018525
v -0.039600 0.000000 -0.008500
v 0.018600 0.004800 0.018550
v 0.028050 0.002400 0.018575
v -0.039600 -0.009600 0.000800
v -0.000300 -0.009600 -0.101500
v 0.008900 0.000000 -0.101500
v -0.000300 0.009600 -0.101500
v -0.000300 -0.000000 0.232900
v 0.009150 -0.000000 0.179325
v -0.000300 0.002400 0.179300
v -0.038100 -0.000000 0.018600
v -0.009697 -0.000003 0.010030
v 0.039000 -0.000000 0.010000
v 0.039000 0.009600 0.000800
v -0.009750 -0.007200 0.018525
v -0.019200 -0.004800 0.018550
v 0.042700 0.014700 0.000800
v -0.028650 -0.002400 0.018575
v 0.042700 -0.000000 0.014600
v -0.028650 0.002400 0.018575
v -0.019200 0.004800 0.018550
v -0.009750 0.007200 0.018525
v 0.042700 -0.014700 0.000800
v 0.039000 -0.009600 0.000800
v 0.039000 0.000000 -0.008500
v -0.009500 0.000000 -0.101500
v 0.042700 0.000000 -0.013100
v -0.000300 0.014700 -0.105600
v -0.014200 0.000000 -0.105600
v -0.009750 -0.000000 0.179325
v -0.000300 -0.002400 0.179300
v -0.000300 -0.014700 -0.105600
v 0.013500 0.000000 -0.105600
v 0.046300 -0.000000 0.000800
v -0.046900 -0.000000 0.000800
v -0.000300 0.000000 -0.110500
v -0.019200 -0.000000 0.125750
v -0.019200 0.002400 0.072150
v -0.028650 -0.000000 0.072175
v -0.009750 0.002400 0.125725
v -0.000300 0.004800 0.125700
v -0.000300 0.007200 0.072100
v -0.009750 0.004800 0.072125
v 0.018600 -0.000000 0.125750
v 0.018600 -0.002400 0.072150
v 0.028050 -0.000000 0.072175
v 0.009150 -0.002400 0.125725
v -0.000300 -0.004800 0.125700
v -0.000300 -0.007200 0.072100
v 0.009150 -0.004800 0.072125
v -0.009750 -0.004800 0.072125
v -0.009750 -0.002400 0.125725
v -0.019200 -0.002400 0.072150
v 0.009150 0.004800 0.072125
v 0.009150 0.002400 0.125725
v 0.018600 0.002400 0.072150
v -0.009691 0.000009 0.009991
v -0.000300 0.009600 0.000800
v -0.009667 0.000000 -0.008500
v 0.009067 0.000000 -0.008500
v -0.000300 -0.009600 0.000800
v 0.009091 -0.000009 0.009991
vt 0.353740 0.635861
vt 0.353740 0.606447
vt 0.361626 0.616251
vt 0.361626 0.635861
vt 0.353740 0.635861
vt 0.353740 0.665488
vt 0.361626 0.655683
vt 0.361626 0.635861
vt 0.465421 0.616187
vt 0.529159 0.616251
vt 0.529159 0.635861
vt 0.465357 0.655683
vt 0.445392 0.635861
vt 0.537045 0.635861
vt 0.537045 0.606447
vt 0.537045 0.635861
vt 0.529159 0.635861
vt 0.529159 0.655683
vt 0.537045 0.665488
vt 0.425428 0.655683
vt 0.445392 0.853909
vt 0.445392 0.635861
vt 0.425363 0.616187
vt 0.425376 0.616271
vt 0.544718 0.635861
vt 0.346066 0.635861
vt 0.525961 0.597921
vt 0.505819 0.597974
vt 0.485677 0.598028
vt 0.465535 0.598081
vt 0.445392 0.598134
vt 0.445392 0.598134
vt 0.465535 0.598081
vt 0.485677 0.598028
vt 0.505819 0.597974
vt 0.425783 0.853909
vt 0.465408 0.616271
vt 0.445392 0.853909
vt 0.445392 0.141150
vt 0.465535 0.255342
vt 0.445392 0.255396
vt 0.384965 0.597974
vt 0.364823 0.597921
vt 0.425250 0.598081
vt 0.405108 0.598028
vt 0.425250 0.598081
vt 0.384965 0.597974
vt 0.405108 0.598028
vt 0.445392 0.862648
vt 0.415765 0.862648
vt 0.425250 0.255342
vt 0.445392 0.255396
vt 0.445392 0.862648
vt 0.474806 0.862648
vt 0.465002 0.853909
vt 0.445392 0.873092
vt 0.405108 0.369535
vt 0.405108 0.483781
vt 0.384965 0.483728
vt 0.425250 0.369589
vt 0.445392 0.369642
vt 0.445392 0.483888
vt 0.425250 0.483835
vt 0.485677 0.369535
vt 0.485677 0.483781
vt 0.505819 0.483728
vt 0.465535 0.369589
vt 0.445392 0.369642
vt 0.445392 0.483888
vt 0.465535 0.483835
vt 0.425250 0.483835
vt 0.425250 0.369589
vt 0.405108 0.483781
vt 0.465535 0.483835
vt 0.465535 0.369589
vt 0.485677 0.483781
vn 0.7897 0.4203 0.4470
vn 0.6902 0.5007 0.5225
vn 0.7902 -0.4198 -0.4466
vn 0.6922 -0.5022 -0.5184
vn 0.6703 0.5098 -0.5392
vn 0.6922 0.5022 -0.5184
vn 0.6716 -0.5071 0.5402
vn 0.6902 -0.5007 0.5225
vn 0.0008 0.6919 0.7220
vn 0.0000 0.6958 -0.7182
vn 0.0076 0.6955 -0.7185
vn -0.0007 0.6963 -0.7178
vn -0.6902 0.5007 0.5225
vn -0.6716 0.5071 0.5402
vn -0.8007 -0.4144 -0.4325
vn -0.6703 -0.5098 -0.5392
vn -0.6922 0.5022 -0.5184
vn -0.6703 0.5098 -0.5392
vn -0.6902 -0.5007 0.5225
vn -0.6716 -0.5071 0.5402
vn -0.0076 0.6955 -0.7185
vn 0.0007 0.6964 -0.7177
vn 0.7158 -0.6984 -0.0000
vn 0.7131 -0.7011 0.0066
vn 0.7156 -0.6985 0.0010
vn -0.0000 0.6919 0.7220
vn -0.0014 0.6908 0.7231
vn 0.0000 -0.6958 -0.7182
vn 0.0062 -0.6927 -0.7212
vn 0.9415 0.2306 0.2456
vn 0.9415 -0.2306 0.2456
vn 0.9420 -0.2307 -0.2440
vn 0.9420 0.2307 -0.2440
vn -0.9415 0.2306 0.2456
vn -0.9420 0.2307 -0.2440
vn -0.9420 -0.2307 -0.2440
vn -0.9415 -0.2306 0.2456
vn 0.1911 -0.7457 -0.6383
vn 0.1911 0.7457 -0.6383
vn -0.7220 -0.6919 -0.0013
vn -0.7183 -0.6957 -0.0067
vn 0.7132 -0.7010 0.0005
vn 0.7144 -0.6998 -0.0003
vn 0.7143 -0.6998 -0.0004
vn 0.7144 -0.6997 -0.0002
vn -0.7158 0.6984 0.0000
vn -0.7131 0.7011 0.0066
vn -0.7157 0.6984 0.0010
vn 0.7145 0.6996 0.0000
vn 0.7132 0.7010 0.0005
vn 0.2458 0.9683 0.0434
vn -0.1911 -0.7457 -0.6383
vn -0.1911 0.7458 -0.6382
vn -0.1911 0.7457 -0.6383
vn 0.7131 0.7011 0.0066
vn 0.7158 0.6984 0.0000
vn 0.7156 0.6985 0.0010
vn -0.7132 -0.7009 -0.0000
vn -0.7145 -0.6996 -0.0000
vn -0.5583 0.5279 0.6400
vn -0.5472 0.5244 0.6523
vn -0.2458 -0.9683 0.0434
vn 0.2458 -0.9683 0.0434
vn -0.2458 0.9683 0.0434
vn 0.5643 -0.5298 0.6331
vn 0.5472 -0.5244 0.6523
vn 0.5643 0.5298 0.6331
vn 0.5472 0.5244 0.6523
vn -0.5583 -0.5279 0.6400
vn -0.5472 -0.5244 0.6523
vn 0.0000 -0.6919 0.7220
vn 0.0017 -0.6913 0.7226
vn -0.7144 0.6997 -0.0002
vn -0.7143 0.6999 -0.0005
vn -0.7130 0.7012 -0.0008
vn 0.3192 -0.2997 -0.8990
vn -0.3172 -0.2999 -0.8997
vn -0.3172 0.2999 -0.8997
vn 0.3192 0.2997 -0.8990
vn -0.0075 -0.6955 -0.7185
vn 0.0008 -0.6964 -0.7176
vn 0.0011 0.6931 0.7208
vn 0.0062 0.6927 -0.7212
vn -0.0062 0.6927 -0.7212
vn 0.7220 -0.6919 -0.0013
vn 0.7183 -0.6957 -0.0067
vn -0.0016 0.6927 0.7212
vn -0.0021 0.6920 0.7219
vn -0.0006 -0.6962 -0.7178
vn 0.0076 -0.6955 -0.7185
vn 0.0001 -0.6919 0.7220
vn -0.0014 -0.6929 0.7210
vn -0.7158 -0.6984 -0.0000
vn -0.7157 -0.6985 0.0011
vn -0.7131 -0.7010 0.0065
vn -0.7220 0.6919 -0.0013
vn -0.7183 0.6957 -0.0067
vn 0.7183 0.6957 -0.0067
vn 0.7220 0.6919 -0.0013
vn 0.0007 -0.6919 0.7220
vn 0.0009 -0.6932 0.7208
vn -0.0062 -0.6927 -0.7212
usemtl Default_OBJ
s off
f 1/1/1 3/2/1 5/3/1
f 5/3/2 8/4/2 1/1/2
f 11/5/3 13/6/3 15/7/3
f 15/7/4 18/8/4 11/5/4
f 15/7/5 13/6/5 1/1/5
f 1/1/6 8/4/6 15/7/6
f 5/3/7 3/2/7 11/5/7
f 11/5/8 18/8/8 5/3/8
f 10/9/9 27/10/9 28/11/9
f 28/11/10 74/12/11 72/13/12
f 31/14/13 28/11/13 27/10/13
f 27/10/14 33/15/14 31/14/14
f 37/16/15 38/17/15 39/18/15
f 39/18/16 41/19/16 37/16/16
f 39/18/17 28/11/17 31/14/17
f 31/14/18 41/19/18 39/18/18
f 27/10/19 38/17/19 37/16/19
f 37/16/20 33/15/20 27/10/20
f 73/20/21 8/4/10 72/13/22
f 19/21/23 74/12/24 75/22/25
f 5/3/26 26/23/26 71/24/27
f 38/17/28 74/12/29 39/18/28
f 31/14/30 33/15/30 48/25/30
f 33/15/31 37/16/31 48/25/31
f 37/16/32 41/19/32 48/25/32
f 41/19/33 31/14/33 48/25/33
f 3/2/34 1/1/34 49/26/34
f 1/1/35 13/6/35 49/26/35
f 13/6/36 11/5/36 49/26/36
f 11/5/37 3/2/37 49/26/37
f 10/9/38 2/27/38 4/28/38 6/29/38 7/30/38 9/31/38
f 2/27/39 10/9/39 12/32/39 14/33/39 16/34/39 17/35/39
f 19/21/40 73/20/41 40/36/40
f 76/37/42 10/9/43 9/31/44 75/22/45
f 21/38/46 73/20/47 72/13/48
f 72/13/49 12/32/49 10/9/50
f 22/39/51 23/40/51 24/41/51
f 32/42/52 25/43/52 26/23/52 9/31/52 29/44/52 30/45/52
f 36/46/53 12/32/54 26/23/54 25/43/53 34/47/53 35/48/53
f 74/12/55 21/38/56 72/13/57
f 26/23/58 75/22/59 9/31/59
f 42/49/60 43/50/60 40/36/60
f 40/36/61 21/38/61 42/49/61
f 22/39/62 44/51/62 45/52/62
f 22/39/63 45/52/63 23/40/63
f 22/39/64 24/41/64 44/51/64
f 46/53/65 47/54/65 20/55/65
f 20/55/66 19/21/66 46/53/66
f 20/55/67 47/54/67 42/49/67
f 42/49/68 21/38/68 20/55/68
f 40/36/69 43/50/69 46/53/69
f 46/53/70 19/21/70 40/36/70
f 10/9/71 76/37/72 38/17/71
f 26/23/73 12/32/74 72/13/74 71/24/75
f 47/54/76 46/53/76 50/56/76
f 46/53/77 43/50/77 50/56/77
f 43/50/78 42/49/78 50/56/78
f 42/49/79 47/54/79 50/56/79
f 51/57/64 52/58/64 53/59/64
f 51/57/64 54/60/64 52/58/64
f 55/61/64 56/62/64 57/63/64
f 58/64/63 59/65/63 60/66/63
f 58/64/63 61/67/63 59/65/63
f 62/68/63 63/69/63 64/70/63
f 62/68/62 65/71/62 63/69/62
f 62/68/62 66/72/62 65/71/62
f 51/57/62 53/59/62 67/73/62
f 55/61/51 68/74/51 56/62/51
f 55/61/51 69/75/51 68/74/51
f 58/64/51 60/66/51 70/76/51
f 70/76/51 17/35/51 16/34/51
f 70/76/51 60/66/51 17/35/51
f 60/66/51 2/27/51 17/35/51
f 68/74/51 70/76/51 16/34/51
f 68/74/51 69/75/51 70/76/51
f 69/75/51 58/64/51 70/76/51
f 56/62/51 14/33/51 12/32/51
f 56/62/51 68/74/51 14/33/51
f 68/74/51 16/34/51 14/33/51
f 67/73/62 32/42/62 30/45/62
f 67/73/62 53/59/62 32/42/62
f 53/59/62 25/43/62 32/42/62
f 65/71/62 67/73/62 30/45/62
f 65/71/62 66/72/62 67/73/62
f 66/72/62 51/57/62 67/73/62
f 63/69/62 29/44/62 9/31/62
f 63/69/62 65/71/62 29/44/62
f 65/71/62 30/45/62 29/44/62
f 64/70/63 7/30/63 6/29/63
f 64/70/63 63/69/63 7/30/63
f 63/69/63 9/31/63 7/30/63
f 59/65/63 64/70/63 6/29/63
f 59/65/63 61/67/63 64/70/63
f 61/67/63 62/68/63 64/70/63
f 60/66/63 4/28/63 2/27/63
f 60/66/63 59/65/63 4/28/63
f 59/65/63 6/29/63 4/28/63
f 57/63/64 36/46/64 35/48/64
f 57/63/64 56/62/64 36/46/64
f 56/62/64 12/32/64 36/46/64
f 52/58/64 57/63/64 35/48/64
f 52/58/64 54/60/64 57/63/64
f 54/60/64 55/61/64 57/63/64
f 53/59/64 34/47/64 25/43/64
f 53/59/64 52/58/64 34/47/64
f 52/58/64 35/48/64 34/47/64
f 44/51/64 54/60/64 51/57/64
f 44/51/64 24/41/64 54/60/64
f 24/41/64 55/61/64 54/60/64
f 23/40/63 61/67/63 58/64/63
f 23/40/63 45/52/63 61/67/63
f 45/52/63 62/68/63 61/67/63
f 45/52/62 66/72/62 62/68/62
f 45/52/62 44/51/62 66/72/62
f 44/51/62 51/57/62 66/72/62
f 24/41/51 69/75/51 55/61/51
f 24/41/51 23/40/51 69/75/51
f 23/40/51 58/64/51 69/75/51
f 18/8/28 73/20/80 75/22/81
f 28/11/26 72/13/26 10/9/82
f 28/11/10 39/18/10 74/12/83
f 73/20/84 15/7/10 8/4/10
f 19/21/85 20/55/85 74/12/86
f 72/13/26 8/4/26 71/24/87
f 8/4/26 5/3/26 71/24/88
f 38/17/28 75/22/89 74/12/90
f 26/23/91 5/3/91 18/8/91
f 18/8/71 75/22/71 26/23/92
f 19/21/93 75/22/94 73/20/95
f 21/38/96 40/36/96 73/20/97
f 74/12/98 20/55/99 21/38/99
f 38/17/100 27/10/100 10/9/100
f 76/37/101 75/22/71 38/17/71
f 18/8/28 15/7/28 73/20/102
