# dagger.obj

# Vertex Attributes
v 0.0375 0 0.0186
v -0.0003 -0.0095999995 0.018499998
v 0.009099999 0 0.0101
v -0.0003 0.0095999995 0.018499998
v 0.0375 0 0.0186
v 0.009099999 0 0.0101
v 0.009099999 0 0.0101
v -0.0003 -0.0095999995 0.018499998
v -0.0003 -0.0095999995 -0.101500005
v 0.008900001 0 -0.101500005
v 0.009099999 0 0.0101
v 0.008900001 0 -0.101500005
v -0.0003 0.0095999995 -0.101500005
v -0.0003 0.0095999995 0.018499998
v -0.0003 0 0.23290001
v 0.0375 0 0.0186
v -0.0003 0.0095999995 0.018499998
v -0.0381 0 0.0186
v -0.009699999 0 0.0101
v -0.0003 -0.0095999995 0.018499998
v -0.0003 0.0095999995 0.018499998
v -0.009699999 0 0.0101
v -0.0381 0 0.0186
v -0.009699999 0 0.0101
v -0.0095 0 -0.101500005
v -0.0003 -0.0095999995 -0.101500005
v -0.0003 -0.0095999995 0.018499998
v -0.0003 0.0147 -0.10560001
v -0.0142 -0 -0.10560001
v -0.0095 0 -0.101500005
v -0.0095 0 -0.101500005
v -0.0003 0.0095999995 -0.101500005
v -0.0003 0.0147 -0.10560001
v -0.0003 0 0.23290001
v -0.0381 0 0.0186
v -0.0003 -0.0095999995 0.018499998
v -0.0003 0 0.23290001
v -0.0003 -0.0095999995 0.018499998
v 0.0375 0 0.0186
v -0.0003 0 0.23290001
v -0.0003 0.0095999995 0.018499998
v -0.0381 0 0.0186
v -0.0003 -0.0147 -0.10560001
v 0.0135 0 -0.10560001
v 0.008900001 0 -0.101500005
v 0.008900001 0 -0.101500005
v -0.0003 -0.0095999995 -0.101500005
v -0.0003 -0.0147 -0.10560001
v 0.008900001 0 -0.101500005
v 0.0135 0 -0.10560001
v -0.0003 0.0147 -0.10560001
v -0.0003 0.0147 -0.10560001
v -0.0003 0.0095999995 -0.101500005
v 0.008900001 0 -0.101500005
v -0.0095 0 -0.101500005
v -0.0142 -0 -0.10560001
v -0.0003 -0.0147 -0.10560001
v -0.0003 -0.0147 -0.10560001
v -0.0003 -0.0095999995 -0.101500005
v -0.0095 0 -0.101500005
v -0.009699999 0 0.0101
v -0.0003 0.0095999995 0.018499998
v -0.0003 0.0095999995 -0.101500005
v -0.0095 0 -0.101500005
v 0.0135 0 -0.10560001
v -0.0003 -0.0147 -0.10560001
v -0.0003 0 -0.1105
v -0.0003 -0.0147 -0.10560001
v -0.0142 -0 -0.10560001
v -0.0003 0 -0.1105
v -0.0142 -0 -0.10560001
v -0.0003 0.0147 -0.10560001
v -0.0003 0 -0.1105
v -0.0003 0.0147 -0.10560001
v 0.0135 0 -0.10560001
v -0.0003 0 -0.1105
v -0.0433 0.0147 0.0008
v -0.0433 -0 0.0146
v -0.039599996 0 0.01
v -0.039599996 0 0.01
v -0.039599996 0.0095999995 0.0008
v -0.0433 0.0147 0.0008
v -0.0433 -0.0147 0.0008
v -0.0433 -0 -0.0131
v -0.039599996 0 -0.0085
v -0.039599996 0 -0.0085
v -0.039599996 -0.0095999995 0.0008
v -0.0433 -0.0147 0.0008
v -0.039599996 0 -0.0085
v -0.0433 -0 -0.0131
v -0.0433 0.0147 0.0008
v -0.0433 0.0147 0.0008
v -0.039599996 0.0095999995 0.0008
v -0.039599996 0 -0.0085
v -0.039599996 0 0.01
v -0.0433 -0 0.0146
v -0.0433 -0.0147 0.0008
v -0.0433 -0.0147 0.0008
v -0.039599996 -0.0095999995 0.0008
v -0.039599996 0 0.01
v -0.039599996 0 0.01
v 0.038999997 0 0.01
v 0.038999997 0.0095999995 0.0008
v -0.039599996 0.0095999995 0.0008
v 0.0427 0.0147 0.0008
v 0.038999997 0.0095999995 0.0008
v 0.038999997 0 0.01
v 0.038999997 0 0.01
v 0.0427 -0 0.0146
v 0.0427 0.0147 0.0008
v 0.0427 -0.0147 0.0008
v 0.038999997 -0.0095999995 0.0008
v 0.038999997 0 -0.0085
v 0.038999997 0 -0.0085
v 0.0427 0 -0.0131
v 0.0427 -0.0147 0.0008
v 0.038999997 0 -0.0085
v 0.038999997 0.0095999995 0.0008
v 0.0427 0.0147 0.0008
v 0.0427 0.0147 0.0008
v 0.0427 0 -0.0131
v 0.038999997 0 -0.0085
v 0.038999997 0 0.01
v 0.038999997 -0.0095999995 0.0008
v 0.0427 -0.0147 0.0008
v 0.0427 -0.0147 0.0008
v 0.0427 -0 0.0146
v 0.038999997 0 0.01
v -0.039599996 0 -0.0085
v 0.038999997 0 -0.0085
v 0.038999997 -0.0095999995 0.0008
v -0.039599996 -0.0095999995 0.0008
v -0.039599996 0 -0.0085
v -0.039599996 0.0095999995 0.0008
v 0.038999997 0.0095999995 0.0008
v 0.038999997 0 -0.0085
v -0.039599996 -0.0095999995 0.0008
v 0.038999997 -0.0095999995 0.0008
v 0.038999997 0 0.01
v -0.039599996 0 0.01
v 0.0427 0.0147 0.0008
v 0.0427 -0 0.0146
v 0.0463 0 0.0008
v 0.0427 -0 0.0146
v 0.0427 -0.0147 0.0008
v 0.0463 0 0.0008
v 0.0427 -0.0147 0.0008
v 0.0427 0 -0.0131
v 0.0463 0 0.0008
v 0.0427 0 -0.0131
v 0.0427 0.0147 0.0008
v 0.0463 0 0.0008
v -0.0433 -0 0.0146
v -0.0433 0.0147 0.0008
v -0.0469 0 0.0008
v -0.0433 0.0147 0.0008
v -0.0433 -0 -0.0131
v -0.0469 0 0.0008
v -0.0433 -0 -0.0131
v -0.0433 -0.0147 0.0008
v -0.0469 0 0.0008
v -0.0433 -0.0147 0.0008
v -0.0433 -0 0.0146
v -0.0469 0 0.0008
vt 0.0623 0.29950002
vt 0.074200004 0.4469
vt 0.031 0.4103
vt 0.7981 0.2215
vt 0.81 0.074
vt 0.8414 0.1848
vt 0.025799999 0.9635
vt 0.0095999995 0.91999996
vt 0.5121 0.91999996
vt 0.4931 0.9625
vt 0.5375 0.7644
vt 0.0701 0.7634
vt 0.0512 0.7208
vt 0.55370003 0.7208
vt 0.020299999 0.2215
vt 0.81 0.074
vt 0.7981 0.2215
vt 0.0623 0.59440005
vt 0.031 0.48360002
vt 0.074200004 0.4469
vt 0.7981 0.2215
vt 0.8414 0.25809997
vt 0.81 0.3689
vt 0.025799999 0.8765
vt 0.4931 0.87740004
vt 0.5121 0.91999996
vt 0.0095999995 0.91999996
vt 0.0095999995 0.7208
vt 0.0425 0.64820004
vt 0.0701 0.6783
vt 0.0701 0.6783
vt 0.0512 0.7208
vt 0.0095999995 0.7208
vt 0.8521 0.4469
vt 0.0623 0.59440005
vt 0.074200004 0.4469
vt 0.8521 0.4469
vt 0.074200004 0.4469
vt 0.0623 0.29950002
vt 0.020299999 0.2215
vt 0.7981 0.2215
vt 0.81 0.3689
vt 0.55370003 0.91999996
vt 0.5208 0.99259996
vt 0.4931 0.9625
vt 0.4931 0.9625
vt 0.5121 0.91999996
vt 0.55370003 0.91999996
vt 0.0701 0.7634
vt 0.0425 0.7935
vt 0.0095999995 0.7208
vt 0.0095999995 0.7208
vt 0.0512 0.7208
vt 0.0701 0.7634
vt 0.4931 0.87740004
vt 0.5208 0.84730005
vt 0.55370003 0.91999996
vt 0.55370003 0.91999996
vt 0.5121 0.91999996
vt 0.4931 0.87740004
vt 0.5375 0.67730004
vt 0.55370003 0.7208
vt 0.0512 0.7208
vt 0.0701 0.6783
vt 0.8954 0.30980003
vt 0.95989996 0.3704
vt 0.8954 0.3704
vt 0.95989996 0.3704
vt 0.8954 0.43109998
vt 0.8954 0.3704
vt 0.8954 0.43109998
vt 0.83089995 0.3704
vt 0.8954 0.3704
vt 0.83089995 0.3704
vt 0.8954 0.30980003
vt 0.8954 0.3704
vt 0.5914 0.9091
vt 0.5914 0.83659995
vt 0.60850006 0.8665
vt 0.60850006 0.8665
vt 0.60850006 0.909
vt 0.5914 0.9091
vt 0.5914 0.7208
vt 0.5914 0.64820004
vt 0.60850006 0.67810005
vt 0.60850006 0.67810005
vt 0.60850006 0.7208
vt 0.5914 0.7208
vt 0.60850006 0.9517
vt 0.5914 0.98169994
vt 0.5914 0.9091
vt 0.5914 0.9091
vt 0.60850006 0.909
vt 0.60850006 0.9517
vt 0.60850006 0.7633
vt 0.5914 0.7933
vt 0.5914 0.7208
vt 0.5914 0.7208
vt 0.60850006 0.7208
vt 0.60850006 0.7633
vt 0.60850006 0.8665
vt 0.9705 0.8665
vt 0.9705 0.909
vt 0.60850006 0.909
vt 0.9875 0.9091
vt 0.9705 0.909
vt 0.9705 0.8665
vt 0.9705 0.8665
vt 0.9875 0.83659995
vt 0.9875 0.9091
vt 0.9875 0.7208
vt 0.9705 0.7208
vt 0.9705 0.67810005
vt 0.9705 0.67810005
vt 0.9875 0.64820004
vt 0.9875 0.7208
vt 0.9705 0.9517
vt 0.9705 0.909
vt 0.9875 0.9091
vt 0.9875 0.9091
vt 0.9875 0.98169994
vt 0.9705 0.9517
vt 0.9705 0.7633
vt 0.9705 0.7208
vt 0.9875 0.7208
vt 0.9875 0.7208
vt 0.9875 0.7933
vt 0.9705 0.7633
vt 0.60850006 0.67810005
vt 0.9705 0.67810005
vt 0.9705 0.7208
vt 0.60850006 0.7208
vt 0.60850006 0.9517
vt 0.60850006 0.909
vt 0.9705 0.909
vt 0.9705 0.9517
vt 0.60850006 0.7208
vt 0.9705 0.7208
vt 0.9705 0.7633
vt 0.60850006 0.7633
vt 0.83089995 0.5872
vt 0.89419997 0.5277
vt 0.89419997 0.5872
vt 0.89419997 0.5277
vt 0.95750004 0.5872
vt 0.89419997 0.5872
vt 0.95750004 0.5872
vt 0.89419997 0.6471001
vt 0.89419997 0.5872
vt 0.89419997 0.6471001
vt 0.83089995 0.5872
vt 0.89419997 0.5872
vt 0.65840006 0.6386
vt 0.59510005 0.5791
vt 0.65840006 0.5791
vt 0.59510005 0.5791
vt 0.65840006 0.51919997
vt 0.65840006 0.5791
vt 0.65840006 0.51919997
vt 0.72169995 0.5791
vt 0.65840006 0.5791
vt 0.72169995 0.5791
vt 0.65840006 0.6386
vt 0.65840006 0.5791
vn 0.19049999 -0.74700004 -0.637
vn 0.19049999 -0.74700004 -0.637
vn 0.19049999 -0.74700004 -0.637
vn 0.1901 0.7467 -0.63740003
vn 0.1901 0.7467 -0.63740003
vn 0.1901 0.7467 -0.63740003
vn 0.7154 -0.6988001 -0
vn 0.7154 -0.6988001 -0
vn 0.7154 -0.6988001 -0
vn 0.7218999 -0.69200003 -0.0011
vn 0.72199994 0.6919 -0.0012
vn 0.72199994 0.6919 -0.0012
vn 0.72199994 0.6919 -0.0012
vn 0.7154 0.6987001 -0.0001
vn 0.2459 0.9683 0.043399997
vn 0.2459 0.9683 0.043399997
vn 0.2459 0.9683 0.043399997
vn -0.19049999 -0.74700004 -0.637
vn -0.19049999 -0.74700004 -0.637
vn -0.19049999 -0.74700004 -0.637
vn -0.1901 0.7467 -0.63740003
vn -0.1901 0.7467 -0.63740003
vn -0.1901 0.7467 -0.63740003
vn -0.7218999 -0.69200003 -0.0011
vn -0.7218999 -0.69200003 -0.0011
vn -0.7218999 -0.69200003 -0.0011
vn -0.7154 -0.6988001 -0
vn -0.5935001 0.558 0.58
vn -0.5935001 0.558 0.58
vn -0.5935001 0.558 0.58
vn -0.58089995 0.5566 0.5939
vn -0.58089995 0.5566 0.5939
vn -0.58089995 0.5566 0.5939
vn -0.24630001 -0.96819997 0.0435
vn -0.24630001 -0.96819997 0.0435
vn -0.24630001 -0.96819997 0.0435
vn 0.24630001 -0.96819997 0.0435
vn 0.24630001 -0.96819997 0.0435
vn 0.24630001 -0.96819997 0.0435
vn -0.2459 0.9683 0.043399997
vn -0.2459 0.9683 0.043399997
vn -0.2459 0.9683 0.043399997
vn 0.5932 -0.55770004 0.58059996
vn 0.5932 -0.55770004 0.58059996
vn 0.5932 -0.55770004 0.58059996
vn 0.5804 -0.5563 0.59470004
vn 0.5804 -0.5563 0.59470004
vn 0.5804 -0.5563 0.59470004
vn 0.5935001 0.558 0.58
vn 0.5935001 0.558 0.58
vn 0.5935001 0.558 0.58
vn 0.58089995 0.5566 0.5939
vn 0.58089995 0.5566 0.5939
vn 0.58089995 0.5566 0.5939
vn -0.5932 -0.55770004 0.58059996
vn -0.5932 -0.55770004 0.58059996
vn -0.5932 -0.55770004 0.58059996
vn -0.5805 -0.5563 0.59470004
vn -0.5805 -0.5563 0.59470004
vn -0.5805 -0.5563 0.59470004
vn -0.7154 0.6987001 -0.0001
vn -0.7154 0.6987001 -0.0001
vn -0.7154 0.6987001 -0.0001
vn -0.72199994 0.6919 -0.0012
vn 0.28660002 -0.2695 -0.9194
vn 0.28660002 -0.2695 -0.9194
vn 0.28660002 -0.2695 -0.9194
vn -0.28660002 -0.2695 -0.9194
vn -0.28660002 -0.2695 -0.9194
vn -0.28660002 -0.2695 -0.9194
vn -0.2854 0.26839998 -0.9201
vn -0.2854 0.26839998 -0.9201
vn -0.2854 0.26839998 -0.9201
vn 0.2854 0.26839998 -0.9201
vn 0.2854 0.26839998 -0.9201
vn 0.2854 0.26839998 -0.9201
vn 0.7897 0.4203 0.447
vn 0.7897 0.4203 0.447
vn 0.7897 0.4203 0.447
vn 0.8002 0.4149 0.4331
vn 0.8002 0.4149 0.4331
vn 0.8002 0.4149 0.4331
vn 0.79019994 -0.4198 -0.44660002
vn 0.79019994 -0.4198 -0.44660002
vn 0.79019994 -0.4198 -0.44660002
vn 0.8007 -0.4144 -0.4325
vn 0.8007 -0.4144 -0.4325
vn 0.8007 -0.4144 -0.4325
vn 0.7897 0.4203 -0.447
vn 0.7897 0.4203 -0.447
vn 0.7897 0.4203 -0.447
vn 0.8002 0.4149 -0.4331
vn 0.8002 0.4149 -0.4331
vn 0.8002 0.4149 -0.4331
vn 0.79019994 -0.4198 0.44660002
vn 0.79019994 -0.4198 0.44660002
vn 0.79019994 -0.4198 0.44660002
vn 0.8007 -0.4144 0.4325
vn 0.8007 -0.4144 0.4325
vn 0.8007 -0.4144 0.4325
vn 0 0.6919 0.72199994
vn 0 0.6919 0.72199994
vn 0 0.6919 0.72199994
vn 0 0.6919 0.72199994
vn -0.8002 0.4149 0.4331
vn -0.8002 0.4149 0.4331
vn -0.8002 0.4149 0.4331
vn -0.7897 0.4203 0.447
vn -0.7897 0.4203 0.447
vn -0.7897 0.4203 0.447
vn -0.8007 -0.4144 -0.4325
vn -0.8007 -0.4144 -0.4325
vn -0.8007 -0.4144 -0.4325
vn -0.79019994 -0.4198 -0.44660002
vn -0.79019994 -0.4198 -0.44660002
vn -0.79019994 -0.4198 -0.44660002
vn -0.8002 0.4149 -0.4331
vn -0.8002 0.4149 -0.4331
vn -0.8002 0.4149 -0.4331
vn -0.7897 0.4203 -0.447
vn -0.7897 0.4203 -0.447
vn -0.7897 0.4203 -0.447
vn -0.8007 -0.4144 0.4325
vn -0.8007 -0.4144 0.4325
vn -0.8007 -0.4144 0.4325
vn -0.79019994 -0.4198 0.4465
vn -0.79019994 -0.4198 0.4465
vn -0.79019994 -0.4198 0.4465
vn 0 -0.69200003 -0.7218999
vn 0 -0.69200003 -0.7218999
vn 0 -0.69200003 -0.7218999
vn 0 -0.69200003 -0.7218999
vn 0 0.6919 -0.72199994
vn 0 0.6919 -0.72199994
vn 0 0.6919 -0.72199994
vn 0 0.6919 -0.72199994
vn 0 -0.69200003 0.7218999
vn 0 -0.69200003 0.7218999
vn 0 -0.69200003 0.7218999
vn 0 -0.69200003 0.7218999
vn 0.9539 0.20549999 0.2186
vn 0.9539 0.20549999 0.2186
vn 0.9539 0.20549999 0.2186
vn 0.9539 -0.20549999 0.2186
vn 0.9539 -0.20549999 0.2186
vn 0.9539 -0.20549999 0.2186
vn 0.9539 -0.20549999 -0.2186
vn 0.9539 -0.20549999 -0.2186
vn 0.9539 -0.20549999 -0.2186
vn 0.9539 0.20549999 -0.2186
vn 0.9539 0.20549999 -0.2186
vn 0.9539 0.20549999 -0.2186
vn -0.9539 0.20549999 0.2186
vn -0.9539 0.20549999 0.2186
vn -0.9539 0.20549999 0.2186
vn -0.9539 0.20549999 -0.2186
vn -0.9539 0.20549999 -0.2186
vn -0.9539 0.20549999 -0.2186
vn -0.9539 -0.20549999 -0.2186
vn -0.9539 -0.20549999 -0.2186
vn -0.9539 -0.20549999 -0.2186
vn -0.9539 -0.20549999 0.2186
vn -0.9539 -0.20549999 0.2186
vn -0.9539 -0.20549999 0.2186

# Triangles
f 1/1/1 2/2/2 3/3/3
f 4/4/4 5/5/5 6/6/6
f 7/7/7 8/8/8 9/9/9
f 9/9/9 10/10/10 7/7/7
f 11/11/11 12/12/12 13/13/13
f 13/13/13 14/14/14 11/11/11
f 15/15/15 16/16/16 17/17/17
f 18/18/18 19/19/19 20/20/20
f 21/21/21 22/22/22 23/23/23
f 24/24/24 25/25/25 26/26/26
f 26/26/26 27/27/27 24/24/24
f 28/28/28 29/29/29 30/30/30
f 31/31/31 32/32/32 33/33/33
f 34/34/34 35/35/35 36/36/36
f 37/37/37 38/38/38 39/39/39
f 40/40/40 41/41/41 42/42/42
f 43/43/43 44/44/44 45/45/45
f 46/46/46 47/47/47 48/48/48
f 49/49/49 50/50/50 51/51/51
f 52/52/52 53/53/53 54/54/54
f 55/55/55 56/56/56 57/57/57
f 58/58/58 59/59/59 60/60/60
f 61/61/61 62/62/62 63/63/63
f 63/63/63 64/64/64 61/61/61
f 65/65/65 66/66/66 67/67/67
f 68/68/68 69/69/69 70/70/70
f 71/71/71 72/72/72 73/73/73
f 74/74/74 75/75/75 76/76/76
f 77/77/77 78/78/78 79/79/79
f 80/80/80 81/81/81 82/82/82
f 83/83/83 84/84/84 85/85/85
f 86/86/86 87/87/87 88/88/88
f 89/89/89 90/90/90 91/91/91
f 92/92/92 93/93/93 94/94/94
f 95/95/95 96/96/96 97/97/97
f 98/98/98 99/99/99 100/100/100
f 101/101/101 102/102/102 103/103/103
f 103/103/103 104/104/104 101/101/101
f 105/105/105 106/106/106 107/107/107
f 108/108/108 109/109/109 110/110/110
f 111/111/111 112/112/112 113/113/113
f 114/114/114 115/115/115 116/116/116
f 117/117/117 118/118/118 119/119/119
f 120/120/120 121/121/121 122/122/122
f 123/123/123 124/124/124 125/125/125
f 126/126/126 127/127/127 128/128/128
f 129/129/129 130/130/130 131/131/131
f 131/131/131 132/132/132 129/129/129
f 133/133/133 134/134/134 135/135/135
f 135/135/135 136/136/136 133/133/133
f 137/137/137 138/138/138 139/139/139
f 139/139/139 140/140/140 137/137/137
f 141/141/141 142/142/142 143/143/143
f 144/144/144 145/145/145 146/146/146
f 147/147/147 148/148/148 149/149/149
f 150/150/150 151/151/151 152/152/152
f 153/153/153 154/154/154 155/155/155
f 156/156/156 157/157/157 158/158/158
f 159/159/159 160/160/160 161/161/161
f 162/162/162 163/163/163 164/164/164
