<?xml version="1.0" encoding="UTF-8" standalone="no"?>
<svg
   xmlns:dc="http://purl.org/dc/elements/1.1/"
   xmlns:cc="http://creativecommons.org/ns#"
   xmlns:rdf="http://www.w3.org/1999/02/22-rdf-syntax-ns#"
   xmlns:svg="http://www.w3.org/2000/svg"
   xmlns="http://www.w3.org/2000/svg"
   width="79.375038mm"
   height="17.568054mm"
   viewBox="0 0 79.375038 17.568054"
   version="1.1"
   id="svg49">
  <defs
     id="defs43" />
  <metadata
     id="metadata46">
    <rdf:RDF>
      <cc:Work
         rdf:about="">
        <dc:format>image/svg+xml</dc:format>
        <dc:type
           rdf:resource="http://purl.org/dc/dcmitype/StillImage" />
        <dc:title></dc:title>
      </cc:Work>
    </rdf:RDF>
  </metadata>
  <g
     id="layer1"
     transform="translate(148.54466,206.0877)">
    <path
       d="m -75.055751,-206.08133 a 8.8015249,8.8015249 0 0 0 -8.86474,8.73829 v 0.0491 c 0,1.56643 0.435501,3.10477 1.26438,4.45345 l 0.0281,0.0422 0.140449,0.22486 0.105399,0.15452 0.0913,0.11947 0.17549,0.24584 0.0281,0.035 a 9.096548,9.096548 0 0 0 1.798259,1.73501 l 0.12637,0.0844 0.189561,0.14045 a 9.2862059,9.2862059 0 0 0 5.148839,1.53834 c 2.922141,0 5.65462,-1.57347 5.65462,-1.57347 v -8.49244 l -3.055599,2.66926 v 3.73695 a 5.696757,5.696757 0 0 1 -2.599021,0.57601 c -3.259309,0 -5.914509,-2.55689 -5.914509,-5.68975 0,-1.49618 0.59005,-2.92915 1.65776,-3.98279 a 5.7389033,5.7389033 0 0 1 4.031962,-1.65776 h 0.196731 c 0.7727,0.035 1.538341,0.2177 2.240791,0.54788 l 2.47958,-2.17753 0.02119,-0.0281 a 8.8998658,8.8998658 0 0 0 -4.397161,-1.4751 c -0.18266,-0.0133 -0.36526,-0.0133 -0.547909,-0.0133 m -40.551631,0.70242 v 11.55506 l -6.44134,-10.19234 a 2.8518906,2.8518906 0 0 0 -2.40234,-1.36272 h -1.6156 v 16.85847 h 2.87297 v -11.49888 l 7.29128,11.49888 h 3.18205 l -0.0133,-16.85847 z m 14.59662,16.85847 h 10.065908 v -2.9994 h -8.682109 v -3.93365 h 7.13676 v -3.11178 h -7.13676 v -3.93365 h 8.682109 v -2.87999 h -11.941418 v 14.98296 c 0,1.03259 0.84292,1.87551 1.87551,1.87551 m -41.87924,-17.56089 c -2.92212,0 -5.6546,1.57344 -5.6546,1.57344 v 9.58123 l 3.04857,-2.66926 v -4.83275 a 5.696757,5.696757 0 0 1 2.59902,-0.57601 c 3.26632,0 5.92151,2.54985 5.92151,5.68972 0,1.49621 -0.59004,2.92918 -1.65773,3.98282 a 5.7389033,5.7389033 0 0 1 -4.03199,1.65776 h -0.19672 a 5.8864148,5.8864148 0 0 1 -2.23376,-0.54088 l -2.4796,2.17756 -0.0281,0.0212 a 8.8998658,8.8998658 0 0 0 4.94514,1.48914 c 2.35317,0 4.60799,-0.92018 6.26574,-2.56389 1.66477,-1.63668 2.59902,-3.8634 2.59902,-6.18143 v -0.0422 c 0,-1.57344 -0.43553,-3.11178 -1.26438,-4.46046 l -0.0281,-0.0422 -0.14045,-0.22487 -0.1054,-0.15451 -0.0772,-0.11231 -0.18266,-0.24584 -0.0281,-0.0422 c -0.43551,-0.55492 -0.92722,-1.05367 -1.48214,-1.49618 l -0.62517,-0.45659 a 9.2791812,9.2791812 0 0 0 -5.16291,-1.53834"
       id="path2"
       style="stroke-width:0.702434" />
  </g>
</svg>
