<?xml version="1.0" encoding="UTF-8" standalone="no"?>
<svg
   xmlns:dc="http://purl.org/dc/elements/1.1/"
   xmlns:cc="http://creativecommons.org/ns#"
   xmlns:rdf="http://www.w3.org/1999/02/22-rdf-syntax-ns#"
   xmlns:svg="http://www.w3.org/2000/svg"
   xmlns="http://www.w3.org/2000/svg"
   xmlns:sodipodi="http://sodipodi.sourceforge.net/DTD/sodipodi-0.dtd"
   xmlns:inkscape="http://www.inkscape.org/namespaces/inkscape"
   width="1000"
   height="146.89427"
   viewBox="0 0 1000 146.89427"
   version="1.1"
   id="svg4"
   sodipodi:docname="Electronic_Arts_2020.svg"
   inkscape:version="0.92.3 (2405546, 2018-03-11)">
  <metadata
     id="metadata10">
    <rdf:RDF>
      <cc:Work
         rdf:about="">
        <dc:format>image/svg+xml</dc:format>
        <dc:type
           rdf:resource="http://purl.org/dc/dcmitype/StillImage" />
        <dc:title />
      </cc:Work>
    </rdf:RDF>
  </metadata>
  <defs
     id="defs8" />
  <sodipodi:namedview
     pagecolor="#ffffff"
     bordercolor="#666666"
     borderopacity="1"
     objecttolerance="10"
     gridtolerance="10"
     guidetolerance="10"
     inkscape:pageopacity="0"
     inkscape:pageshadow="2"
     inkscape:window-width="1366"
     inkscape:window-height="705"
     id="namedview6"
     showgrid="false"
     inkscape:zoom="0.25965428"
     inkscape:cx="1879.5162"
     inkscape:cy="338.64676"
     inkscape:window-x="-8"
     inkscape:window-y="-8"
     inkscape:window-maximized="1"
     inkscape:current-layer="svg4" />
  <g
     id="g854"
     transform="matrix(0.29604019,0,0,0.29604019,-0.91188849,-0.80610444)">
    <path
       style="fill:#ff4747;fill-rule:evenodd"
       inkscape:connector-curvature="0"
       id="path2"
       d="m 3250.8113,249.21024 c 0,-12.92345 13.7987,-19.81365 28.8863,-19.81365 25.4377,0 44.4049,14.64599 47.8492,37.03917 h 50.0089 c -4.7375,-46.08257 -43.9738,-78.38042 -97.0003,-78.38042 -46.9871,0 -83.1973,24.54637 -83.1973,65.88761 0,46.08257 43.9739,58.14043 80.6152,67.61877 26.2912,6.8859 48.7157,12.4885 48.7157,27.99147 0,12.4885 -14.2298,21.10126 -34.0592,21.10126 -26.7309,0 -46.9871,-15.07233 -50.0089,-37.4655 h -50.0046 C 3197.3581,379.26721 3237.8791,412 3292.6298,412 3342.2033,412 3381,385.72678 3381,344.38123 c 0,-44.78635 -43.9653,-56.84421 -80.6152,-66.31825 -26.7223,-6.89451 -49.5735,-12.91914 -49.5735,-28.85274 z m -272.3785,-56.42219 h -54.7507 v 214.90557 h 54.7507 V 293.99659 c 0,-29.28769 25.8645,-59.86299 69.8426,-52.97278 v -52.10719 c -33.2013,-3.88005 -56.9104,14.63738 -69.8426,42.63316 z m -183.3617,104.65364 -41.8185,-87.85445 -40.5209,87.85445 z M 2755.408,93.30638 2910.6033,407.69362 h -62.9325 l -30.6149,-64.17367 H 2691.178 l -29.7485,64.17367 h -61.2125 z m -299.5879,183.89533 h 55.6129 c -10.3415,-52.1115 -55.1818,-88.72004 -108.6393,-88.72004 -62.0747,0 -112.5147,46.94385 -112.5147,111.97449 0,64.6 50.44,111.54384 112.5147,111.54384 53.4575,0 98.2978,-34.88598 108.6393,-86.99748 h -55.6129 c -8.6215,23.25876 -28.8776,37.90045 -53.0264,37.90045 -32.3306,0 -58.195,-25.40764 -58.195,-61.58554 0,-37.03486 25.8644,-62.01617 58.195,-62.01617 24.1488,0 44.4049,14.64169 53.0264,37.90045 z m -244.544,130.49191 h 54.7421 V 192.79236 h -54.7421 z m -7.7637,-276.91743 c 0,19.37871 15.9541,35.31231 34.9213,35.31231 19.3984,0 35.3481,-15.9336 35.3481,-35.31231 0,-19.37871 -15.9497,-35.31662 -35.3481,-35.31662 -18.9672,0 -34.9213,15.93791 -34.9213,35.31662 z m -167.1274,88.71142 v -26.69956 h -54.7507 v 214.90557 h 54.7507 V 277.62804 c 0,-24.9727 19.3983,-44.78635 44.836,-44.78635 26.2912,0 44.8317,18.94807 44.8317,46.93954 v 127.91239 h 54.7507 V 275.47485 c 0,-50.38464 -28.8862,-87.41951 -80.1841,-87.41951 -27.593,0 -51.3021,12.05356 -64.2343,31.43227 z m -193.0479,19.38301 c -33.1927,0 -59.4926,24.977 -59.4926,62.01617 0,36.17359 26.2999,61.58554 59.4926,61.58554 33.197,0 59.4882,-25.41195 59.4882,-61.58554 0,-37.03917 -26.2912,-62.01617 -59.4882,-62.01617 z m 0,173.12938 c -62.9455,0 -113.8079,-46.94384 -113.8079,-111.54384 0,-65.03064 50.8624,-111.97449 113.8079,-111.97449 62.9411,0 113.8122,46.94385 113.8122,111.97449 0,64.6 -50.8711,111.54384 -113.8122,111.54384 z M 1657.8028,192.78805 h -54.7551 v 214.90557 h 54.7551 V 293.99659 c 0,-29.28769 25.8644,-59.86299 69.8383,-52.97278 v -52.10719 c -33.197,-3.88005 -56.9061,14.63738 -69.8383,42.63316 z m 1463.0785,-62.87314 -53.8843,17.22552 v 204.99659 c 0,33.15912 23.2823,55.5566 62.9368,55.5566 h 53.4618 v -48.6664 h -37.9345 c -16.8162,0 -24.5798,-7.75148 -24.5798,-21.96684 v -97.75912 h 62.5143 v -46.51321 h -62.5143 z m -1601.2249,0 -53.8842,17.22552 v 204.99659 c 0,33.15912 23.278,55.5566 62.9325,55.5566 h 53.4661 v -48.6664 h -37.9388 c -16.8119,0 -24.5756,-7.75148 -24.5756,-21.96684 v -97.75912 h 62.5144 v -46.51321 h -62.5144 z m -127.0547,147.2868 h 55.6085 c -10.3458,-52.1115 -55.1775,-88.72004 -108.635,-88.72004 -62.0746,0 -112.5146,46.94385 -112.5146,111.97449 0,64.6 50.44,111.54384 112.5146,111.54384 53.4575,0 98.2892,-34.88598 108.635,-86.99748 h -55.6085 c -8.6215,23.25876 -28.8863,37.90045 -53.0265,37.90045 -32.3305,0 -58.195,-25.40764 -58.195,-61.58554 0,-37.03486 25.8645,-62.01617 58.195,-62.01617 24.1402,0 44.405,14.64169 53.0265,37.90045 z m -243.4621,1.72255 c -4.7418,-25.40764 -27.162,-43.0681 -52.5996,-43.0681 -25.4334,0 -46.556,16.79918 -53.8843,43.0681 z m 59.0615,39.18805 h -165.9722 c 7.324,27.1345 31.4641,45.22129 60.7772,45.22129 16.8162,0 32.3305,-6.45957 41.3917,-19.81365 h 60.7815 C 1188.8027,384.8655 1149.9974,412 1102.1482,412 c -64.6697,0 -117.25644,-47.37448 -117.25644,-111.97448 0,-65.03064 50.00464,-111.97018 111.64814,-111.97018 53.4575,0 112.0879,39.18806 112.0879,121.87485 0,2.58383 -0.4267,5.17196 -0.4267,8.18212 z m -302.30368,89.58131 h 54.75073 V 89 l -54.75073,17.22982 z M 662,106.22982 h 219.00721 v 52.96847 H 722.359 v 70.62893 h 128.4644 v 52.1072 H 722.359 v 73.6477 h 158.64821 v 52.1115 H 662 Z" />
    <g
       style="fill:#ff4747;fill-opacity:1"
       id="g6397"
       transform="matrix(0.56802736,0,0,0.54607826,-36.200487,-11.331697)">
      <g
         transform="matrix(1.0055186,0,0,1.0459224,3.1587629,-42.909591)"
         style="fill:#ff4747;fill-opacity:1"
         id="g6399">
        <path
           d="m 500.006,934.393 c -239.516,0 -434.374,-194.862 -434.374,-434.379 0,-239.52 194.858,-434.381 434.374,-434.381 239.513,0 434.375,194.862 434.375,434.381 0,239.516 -194.861,434.379 -434.375,434.379 z M 573.527,331.999 H 328.041 l -37.247,59.858 h 245.204 z m 50.168,0.571 -150.071,238.963 H 307.16 l 38.405,-59.909 h 99.771 l 38.112,-59.88 H 252.794 l -38.104,59.88 h 54.641 l -75.812,119.611 h 316.389 l 116.86,-184.295 42.609,64.684 h -38.42 l -36.385,59.909 h 113.773 l 39.506,59.702 h 72.576 z"
           id="path6401"
           inkscape:connector-curvature="0"
           style="clip-rule:evenodd;fill:#ff4747;fill-opacity:1;fill-rule:evenodd"
           sodipodi:nodetypes="ssssscccccccccccccccccccccccc" />
      </g>
    </g>
  </g>
</svg>
